{
    "asset" : {
        "generator" : "Khronos glTF Blender I/O v1.6.16",
        "version" : "2.0"
    },
    "scene" : 0,
    "scenes" : [
        {
            "name" : "Scene",
            "nodes" : [
                7
            ]
        }
    ],
    "nodes" : [
        {
            "name" : "lower hand",
            "rotation" : [
                0.12301880121231079,
                6.066577640240212e-08,
                0.13979722559452057,
                0.9825085997581482
            ],
            "translation" : [
                0,
                1,
                0
            ]
        },
        {
            "children" : [
                0
            ],
            "name" : "upper hand"
        },
        {
            "children" : [
                1
            ],
            "name" : "Armature.001",
            "rotation" : [
                0,
                0,
                -0.7491803169250488,
                0.6623660922050476
            ],
            "scale" : [
                0.6968086957931519,
                0.6968086957931519,
                0.6968086957931519
            ],
            "translation" : [
                0.4151057004928589,
                1.707707405090332,
                0.08461511135101318
            ]
        },
        {
            "name" : "body upper",
            "rotation" : [
                -0.006593913771212101,
                -8.573442755732685e-08,
                -0.036825671792030334,
                0.9993000626564026
            ],
            "scale" : [
                0.9999999403953552,
                0.9999999403953552,
                1.0000001192092896
            ],
            "translation" : [
                1.5759934468562165e-09,
                1.381171703338623,
                -1.6431198623934051e-09
            ]
        },
        {
            "children" : [
                3
            ],
            "name" : "body down",
            "rotation" : [
                -0.00026956063811667264,
                4.7785306378500536e-08,
                -0.0015053743263706565,
                0.9999988675117493
            ],
            "scale" : [
                1.0000001192092896,
                0.9999999403953552,
                0.9999999403953552
            ],
            "translation" : [
                -0.0023411065340042114,
                -0.2367027997970581,
                0.00041913840686902404
            ]
        },
        {
            "mesh" : 0,
            "name" : "body",
            "skin" : 0
        },
        {
            "mesh" : 1,
            "name" : "hand",
            "skin" : 0
        },
        {
            "children" : [
                2,
                5,
                6,
                4
            ],
            "name" : "Armature",
            "rotation" : [
                0,
                0,
                -0.11540338397026062,
                0.9933187365531921
            ],
            "scale" : [
                0.23956090211868286,
                0.23956090211868286,
                0.23956090211868286
            ],
            "translation" : [
                -0.5333995223045349,
                -0.1577870100736618,
                -0.4166558086872101
            ]
        }
    ],
    "animations" : [
        {
            "channels" : [
                {
                    "sampler" : 0,
                    "target" : {
                        "node" : 4,
                        "path" : "translation"
                    }
                },
                {
                    "sampler" : 1,
                    "target" : {
                        "node" : 4,
                        "path" : "rotation"
                    }
                },
                {
                    "sampler" : 2,
                    "target" : {
                        "node" : 4,
                        "path" : "scale"
                    }
                },
                {
                    "sampler" : 3,
                    "target" : {
                        "node" : 3,
                        "path" : "translation"
                    }
                },
                {
                    "sampler" : 4,
                    "target" : {
                        "node" : 3,
                        "path" : "rotation"
                    }
                },
                {
                    "sampler" : 5,
                    "target" : {
                        "node" : 3,
                        "path" : "scale"
                    }
                }
            ],
            "name" : "ArmatureAction",
            "samplers" : [
                {
                    "input" : 13,
                    "interpolation" : "LINEAR",
                    "output" : 14
                },
                {
                    "input" : 13,
                    "interpolation" : "LINEAR",
                    "output" : 15
                },
                {
                    "input" : 13,
                    "interpolation" : "LINEAR",
                    "output" : 16
                },
                {
                    "input" : 13,
                    "interpolation" : "LINEAR",
                    "output" : 17
                },
                {
                    "input" : 13,
                    "interpolation" : "LINEAR",
                    "output" : 18
                },
                {
                    "input" : 13,
                    "interpolation" : "LINEAR",
                    "output" : 19
                }
            ]
        },
        {
            "channels" : [
                {
                    "sampler" : 0,
                    "target" : {
                        "node" : 1,
                        "path" : "translation"
                    }
                },
                {
                    "sampler" : 1,
                    "target" : {
                        "node" : 1,
                        "path" : "rotation"
                    }
                },
                {
                    "sampler" : 2,
                    "target" : {
                        "node" : 1,
                        "path" : "scale"
                    }
                },
                {
                    "sampler" : 3,
                    "target" : {
                        "node" : 0,
                        "path" : "translation"
                    }
                },
                {
                    "sampler" : 4,
                    "target" : {
                        "node" : 0,
                        "path" : "rotation"
                    }
                },
                {
                    "sampler" : 5,
                    "target" : {
                        "node" : 0,
                        "path" : "scale"
                    }
                }
            ],
            "name" : "Armature.001Action",
            "samplers" : [
                {
                    "input" : 13,
                    "interpolation" : "LINEAR",
                    "output" : 20
                },
                {
                    "input" : 13,
                    "interpolation" : "LINEAR",
                    "output" : 21
                },
                {
                    "input" : 13,
                    "interpolation" : "LINEAR",
                    "output" : 22
                },
                {
                    "input" : 13,
                    "interpolation" : "LINEAR",
                    "output" : 23
                },
                {
                    "input" : 13,
                    "interpolation" : "LINEAR",
                    "output" : 24
                },
                {
                    "input" : 13,
                    "interpolation" : "LINEAR",
                    "output" : 25
                }
            ]
        }
    ],
    "materials" : [
        {
            "alphaMode" : "BLEND",
            "doubleSided" : true,
            "name" : "body",
            "pbrMetallicRoughness" : {
                "baseColorTexture" : {
                    "index" : 0
                },
                "metallicFactor" : 0,
                "roughnessFactor" : 0.5
            }
        },
        {
            "alphaMode" : "BLEND",
            "doubleSided" : true,
            "name" : "hand",
            "pbrMetallicRoughness" : {}
        }
    ],
    "meshes" : [
        {
            "name" : "body",
            "primitives" : [
                {
                    "attributes" : {
                        "POSITION" : 0,
                        "NORMAL" : 1,
                        "TEXCOORD_0" : 2,
                        "JOINTS_0" : 3,
                        "WEIGHTS_0" : 4
                    },
                    "indices" : 5,
                    "material" : 0
                }
            ]
        },
        {
            "name" : "hand",
            "primitives" : [
                {
                    "attributes" : {
                        "POSITION" : 7,
                        "NORMAL" : 8,
                        "TEXCOORD_0" : 9,
                        "JOINTS_0" : 10,
                        "WEIGHTS_0" : 11
                    },
                    "indices" : 12,
                    "material" : 1
                }
            ]
        }
    ],
    "textures" : [
        {
            "sampler" : 0,
            "source" : 0
        }
    ],
    "images" : [
        {
            "bufferView" : 6,
            "mimeType" : "image/png",
            "name" : "body"
        }
    ],
    "skins" : [
        {
            "inverseBindMatrices" : 6,
            "joints" : [
                4,
                3
            ],
            "name" : "Armature"
        }
    ],
    "accessors" : [
        {
            "bufferView" : 0,
            "componentType" : 5126,
            "count" : 4,
            "max" : [
                0.0899999737739563,
                0.5433333516120911,
                -0.45083311200141907
            ],
            "min" : [
                -0.9916667342185974,
                -0.5433333516120911,
                -0.4508335292339325
            ],
            "type" : "VEC3"
        },
        {
            "bufferView" : 1,
            "componentType" : 5126,
            "count" : 4,
            "type" : "VEC3"
        },
        {
            "bufferView" : 2,
            "componentType" : 5126,
            "count" : 4,
            "type" : "VEC2"
        },
        {
            "bufferView" : 3,
            "componentType" : 5121,
            "count" : 4,
            "type" : "VEC4"
        },
        {
            "bufferView" : 4,
            "componentType" : 5126,
            "count" : 4,
            "type" : "VEC4"
        },
        {
            "bufferView" : 5,
            "componentType" : 5123,
            "count" : 6,
            "type" : "SCALAR"
        },
        {
            "bufferView" : 7,
            "componentType" : 5126,
            "count" : 2,
            "type" : "MAT4"
        },
        {
            "bufferView" : 8,
            "componentType" : 5126,
            "count" : 672,
            "max" : [
                0.11235249042510986,
                0.3178219199180603,
                -0.39639100432395935
            ],
            "min" : [
                -0.4093141555786133,
                0.046155259013175964,
                -0.3963911831378937
            ],
            "type" : "VEC3"
        },
        {
            "bufferView" : 9,
            "componentType" : 5126,
            "count" : 672,
            "type" : "VEC3"
        },
        {
            "bufferView" : 10,
            "componentType" : 5126,
            "count" : 672,
            "type" : "VEC2"
        },
        {
            "bufferView" : 11,
            "componentType" : 5121,
            "count" : 672,
            "type" : "VEC4"
        },
        {
            "bufferView" : 12,
            "componentType" : 5126,
            "count" : 672,
            "type" : "VEC4"
        },
        {
            "bufferView" : 13,
            "componentType" : 5123,
            "count" : 3630,
            "type" : "SCALAR"
        },
        {
            "bufferView" : 14,
            "componentType" : 5126,
            "count" : 30,
            "max" : [
                1.25
            ],
            "min" : [
                0.041666666666666664
            ],
            "type" : "SCALAR"
        },
        {
            "bufferView" : 15,
            "componentType" : 5126,
            "count" : 30,
            "type" : "VEC3"
        },
        {
            "bufferView" : 16,
            "componentType" : 5126,
            "count" : 30,
            "type" : "VEC4"
        },
        {
            "bufferView" : 17,
            "componentType" : 5126,
            "count" : 30,
            "type" : "VEC3"
        },
        {
            "bufferView" : 18,
            "componentType" : 5126,
            "count" : 30,
            "type" : "VEC3"
        },
        {
            "bufferView" : 19,
            "componentType" : 5126,
            "count" : 30,
            "type" : "VEC4"
        },
        {
            "bufferView" : 20,
            "componentType" : 5126,
            "count" : 30,
            "type" : "VEC3"
        },
        {
            "bufferView" : 21,
            "componentType" : 5126,
            "count" : 30,
            "type" : "VEC3"
        },
        {
            "bufferView" : 22,
            "componentType" : 5126,
            "count" : 30,
            "type" : "VEC4"
        },
        {
            "bufferView" : 23,
            "componentType" : 5126,
            "count" : 30,
            "type" : "VEC3"
        },
        {
            "bufferView" : 24,
            "componentType" : 5126,
            "count" : 30,
            "type" : "VEC3"
        },
        {
            "bufferView" : 25,
            "componentType" : 5126,
            "count" : 30,
            "type" : "VEC4"
        },
        {
            "bufferView" : 26,
            "componentType" : 5126,
            "count" : 30,
            "type" : "VEC3"
        }
    ],
    "bufferViews" : [
        {
            "buffer" : 0,
            "byteLength" : 48,
            "byteOffset" : 0
        },
        {
            "buffer" : 0,
            "byteLength" : 48,
            "byteOffset" : 48
        },
        {
            "buffer" : 0,
            "byteLength" : 32,
            "byteOffset" : 96
        },
        {
            "buffer" : 0,
            "byteLength" : 16,
            "byteOffset" : 128
        },
        {
            "buffer" : 0,
            "byteLength" : 64,
            "byteOffset" : 144
        },
        {
            "buffer" : 0,
            "byteLength" : 12,
            "byteOffset" : 208
        },
        {
            "buffer" : 0,
            "byteLength" : 455813,
            "byteOffset" : 220
        },
        {
            "buffer" : 0,
            "byteLength" : 128,
            "byteOffset" : 456036
        },
        {
            "buffer" : 0,
            "byteLength" : 8064,
            "byteOffset" : 456164
        },
        {
            "buffer" : 0,
            "byteLength" : 8064,
            "byteOffset" : 464228
        },
        {
            "buffer" : 0,
            "byteLength" : 5376,
            "byteOffset" : 472292
        },
        {
            "buffer" : 0,
            "byteLength" : 2688,
            "byteOffset" : 477668
        },
        {
            "buffer" : 0,
            "byteLength" : 10752,
            "byteOffset" : 480356
        },
        {
            "buffer" : 0,
            "byteLength" : 7260,
            "byteOffset" : 491108
        },
        {
            "buffer" : 0,
            "byteLength" : 120,
            "byteOffset" : 498368
        },
        {
            "buffer" : 0,
            "byteLength" : 360,
            "byteOffset" : 498488
        },
        {
            "buffer" : 0,
            "byteLength" : 480,
            "byteOffset" : 498848
        },
        {
            "buffer" : 0,
            "byteLength" : 360,
            "byteOffset" : 499328
        },
        {
            "buffer" : 0,
            "byteLength" : 360,
            "byteOffset" : 499688
        },
        {
            "buffer" : 0,
            "byteLength" : 480,
            "byteOffset" : 500048
        },
        {
            "buffer" : 0,
            "byteLength" : 360,
            "byteOffset" : 500528
        },
        {
            "buffer" : 0,
            "byteLength" : 360,
            "byteOffset" : 500888
        },
        {
            "buffer" : 0,
            "byteLength" : 480,
            "byteOffset" : 501248
        },
        {
            "buffer" : 0,
            "byteLength" : 360,
            "byteOffset" : 501728
        },
        {
            "buffer" : 0,
            "byteLength" : 360,
            "byteOffset" : 502088
        },
        {
            "buffer" : 0,
            "byteLength" : 480,
            "byteOffset" : 502448
        },
        {
            "buffer" : 0,
            "byteLength" : 360,
            "byteOffset" : 502928
        }
    ],
    "samplers" : [
        {
            "magFilter" : 9729,
            "minFilter" : 9987,
            "wrapS" : 33071,
            "wrapT" : 33071
        }
    ],
    "buffers" : [
        {
            "byteLength" : 503288,
            "uri" : "data:application/octet-stream;base64,"
        }
    ]
}
